<?xml version="1.0" encoding="UTF-8" standalone="no"?>
<!DOCTYPE svg PUBLIC "-//W3C//DTD SVG 1.1//EN" "http://www.w3.org/Graphics/SVG/1.1/DTD/svg11.dtd">
<svg xmlns="http://www.w3.org/2000/svg" xmlns:xl="http://www.w3.org/1999/xlink" version="1.1" viewBox="99 240 720 243" width="60pc" height="243pt" xmlns:dc="http://purl.org/dc/elements/1.1/">
  <metadata> Produced by OmniGraffle 7.2.2 
    <dc:date>2016-12-20 14:14:29 +0000</dc:date>
  </metadata>
  <defs/>
  <g stroke="none" stroke-opacity="1" stroke-dasharray="none" fill="none" fill-opacity="1">
    <title>Canvas 2</title>
    <rect fill="white" width="997" height="845"/>
    <g>
      <title>图层 1</title>
      <circle cx="294" cy="255.5" r="15.000024" fill="white"/>
      <circle cx="294" cy="255.5" r="15.000024" stroke="black" stroke-linecap="round" stroke-linejoin="round" stroke-width="1"/>
      <circle cx="217" cy="318.5" r="15.000024" fill="white"/>
      <circle cx="217" cy="318.5" r="15.000024" stroke="black" stroke-linecap="round" stroke-linejoin="round" stroke-width="1"/>
      <circle cx="368" cy="318.5" r="15.000024" fill="white"/>
      <circle cx="368" cy="318.5" r="15.000024" stroke="black" stroke-linecap="round" stroke-linejoin="round" stroke-width="1"/>
      <circle cx="160" cy="392.5" r="15.000024" fill="white"/>
      <circle cx="160" cy="392.5" r="15.000024" stroke="black" stroke-linecap="round" stroke-linejoin="round" stroke-width="1"/>
      <circle cx="270" cy="392.5" r="15.000024" fill="white"/>
      <circle cx="270" cy="392.5" r="15.000024" stroke="black" stroke-linecap="round" stroke-linejoin="round" stroke-width="1"/>
      <circle cx="115" cy="467" r="15.000024" fill="black"/>
      <circle cx="115" cy="467" r="15.000024" stroke="black" stroke-linecap="round" stroke-linejoin="round" stroke-width="1"/>
      <circle cx="193" cy="467" r="15.000024" fill="black"/>
      <circle cx="193" cy="467" r="15.000024" stroke="black" stroke-linecap="round" stroke-linejoin="round" stroke-width="1"/>
      <circle cx="310" cy="467" r="15.000024" fill="black"/>
      <circle cx="310" cy="467" r="15.000024" stroke="black" stroke-linecap="round" stroke-linejoin="round" stroke-width="1"/>
      <circle cx="234" cy="467" r="15.000024" fill="white"/>
      <circle cx="234" cy="467" r="15.000024" stroke="black" stroke-linecap="round" stroke-linejoin="round" stroke-width="1"/>
      <line x1="282.3898" y1="264.99926" x2="228.6102" y2="309.00074" stroke="black" stroke-linecap="round" stroke-linejoin="round" stroke-width="1"/>
      <line x1="305.42205" y1="265.22418" x2="356.57795" y2="308.77582" stroke="black" stroke-linecap="round" stroke-linejoin="round" stroke-width="1"/>
      <line x1="207.84558" y1="330.3847" x2="169.15442" y2="380.6153" stroke="black" stroke-linecap="round" stroke-linejoin="round" stroke-width="1"/>
      <line x1="225.7355" y1="330.69672" x2="261.2645" y2="380.30328" stroke="black" stroke-linecap="round" stroke-linejoin="round" stroke-width="1"/>
      <line x1="263.47192" y1="406.0095" x2="240.52808" y2="453.4905" stroke="black" stroke-linecap="round" stroke-linejoin="round" stroke-width="1"/>
      <line x1="277.0975" y1="405.7191" x2="302.9025" y2="453.7809" stroke="black" stroke-linecap="round" stroke-linejoin="round" stroke-width="1"/>
      <line x1="166.07663" y1="406.21844" x2="186.92337" y2="453.28156" stroke="black" stroke-linecap="round" stroke-linejoin="round" stroke-width="1"/>
      <line x1="152.24277" y1="405.34253" x2="122.75723" y2="454.1575" stroke="black" stroke-linecap="round" stroke-linejoin="round" stroke-width="1"/>
      <circle cx="405.5" cy="392.5" r="15.000024" fill="black"/>
      <circle cx="405.5" cy="392.5" r="15.000024" stroke="black" stroke-linecap="round" stroke-linejoin="round" stroke-width="1"/>
      <line x1="374.78226" y1="331.88367" x2="398.71774" y2="379.11633" stroke="black" stroke-linecap="round" stroke-linejoin="round" stroke-width="1"/>
      <circle cx="692" cy="255.5" r="15.000024" fill="#ff4040"/>
      <circle cx="692" cy="255.5" r="15.000024" stroke="black" stroke-linecap="round" stroke-linejoin="round" stroke-width="1"/>
      <circle cx="615" cy="318.5" r="15.000024" fill="#ff4040"/>
      <circle cx="615" cy="318.5" r="15.000024" stroke="black" stroke-linecap="round" stroke-linejoin="round" stroke-width="1"/>
      <circle cx="558" cy="392.5" r="15.000024" fill="#ff4040"/>
      <circle cx="558" cy="392.5" r="15.000024" stroke="black" stroke-linecap="round" stroke-linejoin="round" stroke-width="1"/>
      <circle cx="513" cy="467" r="15.000024" fill="black"/>
      <circle cx="513" cy="467" r="15.000024" stroke="black" stroke-linecap="round" stroke-linejoin="round" stroke-width="1"/>
      <circle cx="591" cy="467" r="15.000024" fill="black"/>
      <circle cx="591" cy="467" r="15.000024" stroke="black" stroke-linecap="round" stroke-linejoin="round" stroke-width="1"/>
      <circle cx="708" cy="467" r="15.000024" fill="black"/>
      <circle cx="708" cy="467" r="15.000024" stroke="black" stroke-linecap="round" stroke-linejoin="round" stroke-width="1"/>
      <line x1="680.3898" y1="264.99926" x2="626.6102" y2="309.00074" stroke="black" stroke-linecap="round" stroke-linejoin="round" stroke-width="1" stroke-dasharray="4,4"/>
      <line x1="605.8456" y1="330.3847" x2="567.1544" y2="380.6153" stroke="black" stroke-linecap="round" stroke-linejoin="round" stroke-width="1" stroke-dasharray="4,4"/>
      <line x1="564.0766" y1="406.21844" x2="584.9234" y2="453.28156" stroke="black" stroke-linecap="round" stroke-linejoin="round" stroke-width="1" stroke-dasharray="4,4"/>
      <line x1="550.2428" y1="405.34253" x2="520.7572" y2="454.1575" stroke="black" stroke-linecap="round" stroke-linejoin="round" stroke-width="1" stroke-dasharray="4,4"/>
      <circle cx="803.5" cy="392.5" r="15.000024" fill="black"/>
      <circle cx="803.5" cy="392.5" r="15.000024" stroke="black" stroke-linecap="round" stroke-linejoin="round" stroke-width="1"/>
      <line x1="622.9633" y1="331.21555" x2="700.0367" y2="454.28445" stroke="black" stroke-linecap="round" stroke-linejoin="round" stroke-width="1" stroke-dasharray="4,4"/>
      <line x1="701.4692" y1="267.1348" x2="794.0308" y2="380.8652" stroke="black" stroke-linecap="round" stroke-linejoin="round" stroke-width="1" stroke-dasharray="4,4"/>
    </g>
  </g>
</svg>
